<?xml version="1.0" encoding="UTF-8"?>
<svg xmlns="http://www.w3.org/2000/svg" viewBox="0 0 743.9135 482.3806" width="743.9135" height="482.3806">
  <defs>
    <!-- Architectural grid for light theme -->
    <pattern id="lightGrid_Main_SF" width="40" height="40" patternUnits="userSpaceOnUse">
      <path d="M 40 0 L 0 0 0 40" fill="none" stroke="#E2E8F0" stroke-width="0.75" stroke-opacity="0.8"/>
      <circle cx="0" cy="0" r="1" fill="#94A3B8" fill-opacity="0.5"/>
    </pattern>
    <filter id="softShadow_Main_SF" x="-5%" y="-5%" width="110%" height="110%">
      <feDropShadow dx="0" dy="4" stdDeviation="6" flood-color="#0F172A" flood-opacity="0.08" />
    </filter>
    <filter id="badgeShadow_Main_SF" x="-20%" y="-20%" width="140%" height="140%">
      <feDropShadow dx="0" dy="2" stdDeviation="3" flood-color="#000000" flood-opacity="0.15" />
    </filter>
  </defs>

  <!-- Clean Light Canvas Background -->
  <rect x="0" y="0" width="743.9135" height="482.3806" fill="#F8FAFC"/>
  <rect x="0" y="0" width="743.9135" height="482.3806" fill="url(#lightGrid_Main_SF)"/>

  <!-- Architectural Floor Outline & Slab Boundary -->
  <g filter="url(#softShadow_Main_SF)">
    <rect x="0" y="62.2847" width="743.9135" height="319.95660000000004" rx="18" fill="#FFFFFF" stroke="#475569" stroke-width="2.5" />
    <rect x="6" y="68.2847" width="731.9135" height="307.95660000000004" rx="14" fill="#F8FAFC" stroke="#CBD5E1" stroke-width="1.5" />
    
    <!-- Floor Banner Badge -->
    <rect x="16" y="78.2847" width="260" height="36" rx="8" fill="#0F172A" />
    <text x="28" y="101.2847" fill="#F8FAFC" font-family="system-ui, -apple-system, sans-serif" font-size="12" font-weight="800" letter-spacing="1">MAIN BUILDING // SECOND FLOOR</text>
  </g>
  <!-- Hallways and Walkway Corridors -->
  <g>
    <line x1="298.5" y1="149.0239" x2="334.3695" y2="149.1543" stroke="#E2E8F0" stroke-width="18" stroke-linecap="round" />
    <line x1="298.5" y1="149.0239" x2="334.3695" y2="149.1543" stroke="#FFFFFF" stroke-width="10" stroke-linecap="round" />
    <line x1="298.5" y1="149.0239" x2="334.3695" y2="149.1543" stroke="#94A3B8" stroke-width="1" stroke-dasharray="4,4" opacity="0.6" stroke-linecap="round" />
    <line x1="659.9347" y1="149.0239" x2="677.3478" y2="149.0239" stroke="#E2E8F0" stroke-width="18" stroke-linecap="round" />
    <line x1="659.9347" y1="149.0239" x2="677.3478" y2="149.0239" stroke="#FFFFFF" stroke-width="10" stroke-linecap="round" />
    <line x1="659.9347" y1="149.0239" x2="677.3478" y2="149.0239" stroke="#94A3B8" stroke-width="1" stroke-dasharray="4,4" opacity="0.6" stroke-linecap="round" />
    <line x1="711.5502" y1="149.0239" x2="711.4891" y2="201.4913" stroke="#E2E8F0" stroke-width="18" stroke-linecap="round" />
    <line x1="711.5502" y1="149.0239" x2="711.4891" y2="201.4913" stroke="#FFFFFF" stroke-width="10" stroke-linecap="round" />
    <line x1="711.5502" y1="149.0239" x2="711.4891" y2="201.4913" stroke="#94A3B8" stroke-width="1" stroke-dasharray="4,4" opacity="0.6" stroke-linecap="round" />
    <line x1="711.6032" y1="293.2684" x2="711.5502" y2="345.5681" stroke="#E2E8F0" stroke-width="18" stroke-linecap="round" />
    <line x1="711.6032" y1="293.2684" x2="711.5502" y2="345.5681" stroke="#FFFFFF" stroke-width="10" stroke-linecap="round" />
    <line x1="711.6032" y1="293.2684" x2="711.5502" y2="345.5681" stroke="#94A3B8" stroke-width="1" stroke-dasharray="4,4" opacity="0.6" stroke-linecap="round" />
    <line x1="386.6739" y1="149.2239" x2="453.0326" y2="149.0239" stroke="#E2E8F0" stroke-width="18" stroke-linecap="round" />
    <line x1="386.6739" y1="149.2239" x2="453.0326" y2="149.0239" stroke="#FFFFFF" stroke-width="10" stroke-linecap="round" />
    <line x1="386.6739" y1="149.2239" x2="453.0326" y2="149.0239" stroke="#94A3B8" stroke-width="1" stroke-dasharray="4,4" opacity="0.6" stroke-linecap="round" />
    <line x1="677.3478" y1="149.0239" x2="706.9239" y2="149.0239" stroke="#E2E8F0" stroke-width="18" stroke-linecap="round" />
    <line x1="677.3478" y1="149.0239" x2="706.9239" y2="149.0239" stroke="#FFFFFF" stroke-width="10" stroke-linecap="round" />
    <line x1="677.3478" y1="149.0239" x2="706.9239" y2="149.0239" stroke="#94A3B8" stroke-width="1" stroke-dasharray="4,4" opacity="0.6" stroke-linecap="round" />
    <line x1="711.4891" y1="201.4913" x2="711.5543" y2="232.6326" stroke="#E2E8F0" stroke-width="18" stroke-linecap="round" />
    <line x1="711.4891" y1="201.4913" x2="711.5543" y2="232.6326" stroke="#FFFFFF" stroke-width="10" stroke-linecap="round" />
    <line x1="711.4891" y1="201.4913" x2="711.5543" y2="232.6326" stroke="#94A3B8" stroke-width="1" stroke-dasharray="4,4" opacity="0.6" stroke-linecap="round" />
    <line x1="349.8548" y1="161.676" x2="349.7608" y2="149.2847" stroke="#E2E8F0" stroke-width="18" stroke-linecap="round" />
    <line x1="349.8548" y1="161.676" x2="349.7608" y2="149.2847" stroke="#FFFFFF" stroke-width="10" stroke-linecap="round" />
    <line x1="349.8548" y1="161.676" x2="349.7608" y2="149.2847" stroke="#94A3B8" stroke-width="1" stroke-dasharray="4,4" opacity="0.6" stroke-linecap="round" />
    <line x1="511.3695" y1="148.9348" x2="563.0217" y2="149.1186" stroke="#E2E8F0" stroke-width="18" stroke-linecap="round" />
    <line x1="511.3695" y1="148.9348" x2="563.0217" y2="149.1186" stroke="#FFFFFF" stroke-width="10" stroke-linecap="round" />
    <line x1="511.3695" y1="148.9348" x2="563.0217" y2="149.1186" stroke="#94A3B8" stroke-width="1" stroke-dasharray="4,4" opacity="0.6" stroke-linecap="round" />
    <line x1="608.413" y1="136.1108" x2="607.8913" y2="149.0239" stroke="#E2E8F0" stroke-width="18" stroke-linecap="round" />
    <line x1="608.413" y1="136.1108" x2="607.8913" y2="149.0239" stroke="#FFFFFF" stroke-width="10" stroke-linecap="round" />
    <line x1="608.413" y1="136.1108" x2="607.8913" y2="149.0239" stroke="#94A3B8" stroke-width="1" stroke-dasharray="4,4" opacity="0.6" stroke-linecap="round" />
    <line x1="711.5543" y1="232.6326" x2="711.6032" y2="293.2684" stroke="#E2E8F0" stroke-width="18" stroke-linecap="round" />
    <line x1="711.5543" y1="232.6326" x2="711.6032" y2="293.2684" stroke="#FFFFFF" stroke-width="10" stroke-linecap="round" />
    <line x1="711.5543" y1="232.6326" x2="711.6032" y2="293.2684" stroke="#94A3B8" stroke-width="1" stroke-dasharray="4,4" opacity="0.6" stroke-linecap="round" />
    <line x1="386.6739" y1="230.4586" x2="386.6739" y2="281.138" stroke="#E2E8F0" stroke-width="18" stroke-linecap="round" />
    <line x1="386.6739" y1="230.4586" x2="386.6739" y2="281.138" stroke="#FFFFFF" stroke-width="10" stroke-linecap="round" />
    <line x1="386.6739" y1="230.4586" x2="386.6739" y2="281.138" stroke="#94A3B8" stroke-width="1" stroke-dasharray="4,4" opacity="0.6" stroke-linecap="round" />
    <line x1="563.0217" y1="149.1186" x2="563.2218" y2="136.1108" stroke="#E2E8F0" stroke-width="18" stroke-linecap="round" />
    <line x1="563.0217" y1="149.1186" x2="563.2218" y2="136.1108" stroke="#FFFFFF" stroke-width="10" stroke-linecap="round" />
    <line x1="563.0217" y1="149.1186" x2="563.2218" y2="136.1108" stroke="#94A3B8" stroke-width="1" stroke-dasharray="4,4" opacity="0.6" stroke-linecap="round" />
    <line x1="67.4347" y1="136.1108" x2="67.6304" y2="149.0301" stroke="#E2E8F0" stroke-width="18" stroke-linecap="round" />
    <line x1="67.4347" y1="136.1108" x2="67.6304" y2="149.0301" stroke="#FFFFFF" stroke-width="10" stroke-linecap="round" />
    <line x1="67.4347" y1="136.1108" x2="67.6304" y2="149.0301" stroke="#94A3B8" stroke-width="1" stroke-dasharray="4,4" opacity="0.6" stroke-linecap="round" />
    <line x1="373.2174" y1="148.8883" x2="386.6739" y2="149.2239" stroke="#E2E8F0" stroke-width="18" stroke-linecap="round" />
    <line x1="373.2174" y1="148.8883" x2="386.6739" y2="149.2239" stroke="#FFFFFF" stroke-width="10" stroke-linecap="round" />
    <line x1="373.2174" y1="148.8883" x2="386.6739" y2="149.2239" stroke="#94A3B8" stroke-width="1" stroke-dasharray="4,4" opacity="0.6" stroke-linecap="round" />
    <line x1="386.6739" y1="230.4586" x2="376.1087" y2="230.4586" stroke="#E2E8F0" stroke-width="18" stroke-linecap="round" />
    <line x1="386.6739" y1="230.4586" x2="376.1087" y2="230.4586" stroke="#FFFFFF" stroke-width="10" stroke-linecap="round" />
    <line x1="386.6739" y1="230.4586" x2="376.1087" y2="230.4586" stroke="#94A3B8" stroke-width="1" stroke-dasharray="4,4" opacity="0.6" stroke-linecap="round" />
    <line x1="629.6739" y1="136.1108" x2="629.6739" y2="149.0239" stroke="#E2E8F0" stroke-width="18" stroke-linecap="round" />
    <line x1="629.6739" y1="136.1108" x2="629.6739" y2="149.0239" stroke="#FFFFFF" stroke-width="10" stroke-linecap="round" />
    <line x1="629.6739" y1="136.1108" x2="629.6739" y2="149.0239" stroke="#94A3B8" stroke-width="1" stroke-dasharray="4,4" opacity="0.6" stroke-linecap="round" />
    <line x1="298.5652" y1="135.7195" x2="298.5" y2="149.0239" stroke="#E2E8F0" stroke-width="18" stroke-linecap="round" />
    <line x1="298.5652" y1="135.7195" x2="298.5" y2="149.0239" stroke="#FFFFFF" stroke-width="10" stroke-linecap="round" />
    <line x1="298.5652" y1="135.7195" x2="298.5" y2="149.0239" stroke="#94A3B8" stroke-width="1" stroke-dasharray="4,4" opacity="0.6" stroke-linecap="round" />
    <line x1="373.2174" y1="98.2847" x2="373.2174" y2="148.8883" stroke="#E2E8F0" stroke-width="18" stroke-linecap="round" />
    <line x1="373.2174" y1="98.2847" x2="373.2174" y2="148.8883" stroke="#FFFFFF" stroke-width="10" stroke-linecap="round" />
    <line x1="373.2174" y1="98.2847" x2="373.2174" y2="148.8883" stroke="#94A3B8" stroke-width="1" stroke-dasharray="4,4" opacity="0.6" stroke-linecap="round" />
    <line x1="349.7608" y1="149.2847" x2="357.2608" y2="149.0239" stroke="#E2E8F0" stroke-width="18" stroke-linecap="round" />
    <line x1="349.7608" y1="149.2847" x2="357.2608" y2="149.0239" stroke="#FFFFFF" stroke-width="10" stroke-linecap="round" />
    <line x1="349.7608" y1="149.2847" x2="357.2608" y2="149.0239" stroke="#94A3B8" stroke-width="1" stroke-dasharray="4,4" opacity="0.6" stroke-linecap="round" />
    <line x1="386.6739" y1="281.138" x2="386.6739" y2="346.2413" stroke="#E2E8F0" stroke-width="18" stroke-linecap="round" />
    <line x1="386.6739" y1="281.138" x2="386.6739" y2="346.2413" stroke="#FFFFFF" stroke-width="10" stroke-linecap="round" />
    <line x1="386.6739" y1="281.138" x2="386.6739" y2="346.2413" stroke="#94A3B8" stroke-width="1" stroke-dasharray="4,4" opacity="0.6" stroke-linecap="round" />
    <line x1="660.326" y1="162.0673" x2="659.9347" y2="149.0239" stroke="#E2E8F0" stroke-width="18" stroke-linecap="round" />
    <line x1="660.326" y1="162.0673" x2="659.9347" y2="149.0239" stroke="#FFFFFF" stroke-width="10" stroke-linecap="round" />
    <line x1="660.326" y1="162.0673" x2="659.9347" y2="149.0239" stroke="#94A3B8" stroke-width="1" stroke-dasharray="4,4" opacity="0.6" stroke-linecap="round" />
    <line x1="27.7174" y1="148.9031" x2="28.0434" y2="130.5021" stroke="#E2E8F0" stroke-width="18" stroke-linecap="round" />
    <line x1="27.7174" y1="148.9031" x2="28.0434" y2="130.5021" stroke="#FFFFFF" stroke-width="10" stroke-linecap="round" />
    <line x1="27.7174" y1="148.9031" x2="28.0434" y2="130.5021" stroke="#94A3B8" stroke-width="1" stroke-dasharray="4,4" opacity="0.6" stroke-linecap="round" />
    <line x1="511.3695" y1="148.9348" x2="511.6304" y2="135.4586" stroke="#E2E8F0" stroke-width="18" stroke-linecap="round" />
    <line x1="511.3695" y1="148.9348" x2="511.6304" y2="135.4586" stroke="#FFFFFF" stroke-width="10" stroke-linecap="round" />
    <line x1="511.3695" y1="148.9348" x2="511.6304" y2="135.4586" stroke="#94A3B8" stroke-width="1" stroke-dasharray="4,4" opacity="0.6" stroke-linecap="round" />
    <line x1="357.2608" y1="99.1652" x2="357.2608" y2="149.0239" stroke="#E2E8F0" stroke-width="18" stroke-linecap="round" />
    <line x1="357.2608" y1="99.1652" x2="357.2608" y2="149.0239" stroke="#FFFFFF" stroke-width="10" stroke-linecap="round" />
    <line x1="357.2608" y1="99.1652" x2="357.2608" y2="149.0239" stroke="#94A3B8" stroke-width="1" stroke-dasharray="4,4" opacity="0.6" stroke-linecap="round" />
    <line x1="386.6739" y1="188.8181" x2="386.6739" y2="230.4586" stroke="#E2E8F0" stroke-width="18" stroke-linecap="round" />
    <line x1="386.6739" y1="188.8181" x2="386.6739" y2="230.4586" stroke="#FFFFFF" stroke-width="10" stroke-linecap="round" />
    <line x1="386.6739" y1="188.8181" x2="386.6739" y2="230.4586" stroke="#94A3B8" stroke-width="1" stroke-dasharray="4,4" opacity="0.6" stroke-linecap="round" />
    <line x1="376.1087" y1="230.4586" x2="386.6739" y2="230.4586" stroke="#E2E8F0" stroke-width="18" stroke-linecap="round" />
    <line x1="376.1087" y1="230.4586" x2="386.6739" y2="230.4586" stroke="#FFFFFF" stroke-width="10" stroke-linecap="round" />
    <line x1="376.1087" y1="230.4586" x2="386.6739" y2="230.4586" stroke="#94A3B8" stroke-width="1" stroke-dasharray="4,4" opacity="0.6" stroke-linecap="round" />
    <line x1="702.3056" y1="232.5918" x2="711.5543" y2="232.6326" stroke="#E2E8F0" stroke-width="18" stroke-linecap="round" />
    <line x1="702.3056" y1="232.5918" x2="711.5543" y2="232.6326" stroke="#FFFFFF" stroke-width="10" stroke-linecap="round" />
    <line x1="702.3056" y1="232.5918" x2="711.5543" y2="232.6326" stroke="#94A3B8" stroke-width="1" stroke-dasharray="4,4" opacity="0.6" stroke-linecap="round" />
    <line x1="67.6304" y1="149.0301" x2="67.4347" y2="136.1108" stroke="#E2E8F0" stroke-width="18" stroke-linecap="round" />
    <line x1="67.6304" y1="149.0301" x2="67.4347" y2="136.1108" stroke="#FFFFFF" stroke-width="10" stroke-linecap="round" />
    <line x1="67.6304" y1="149.0301" x2="67.4347" y2="136.1108" stroke="#94A3B8" stroke-width="1" stroke-dasharray="4,4" opacity="0.6" stroke-linecap="round" />
    <line x1="219.2608" y1="135.85" x2="219.0652" y2="149.0239" stroke="#E2E8F0" stroke-width="18" stroke-linecap="round" />
    <line x1="219.2608" y1="135.85" x2="219.0652" y2="149.0239" stroke="#FFFFFF" stroke-width="10" stroke-linecap="round" />
    <line x1="219.2608" y1="135.85" x2="219.0652" y2="149.0239" stroke="#94A3B8" stroke-width="1" stroke-dasharray="4,4" opacity="0.6" stroke-linecap="round" />
    <line x1="345.7826" y1="124.1108" x2="345.9782" y2="149.2239" stroke="#E2E8F0" stroke-width="18" stroke-linecap="round" />
    <line x1="345.7826" y1="124.1108" x2="345.9782" y2="149.2239" stroke="#FFFFFF" stroke-width="10" stroke-linecap="round" />
    <line x1="345.7826" y1="124.1108" x2="345.9782" y2="149.2239" stroke="#94A3B8" stroke-width="1" stroke-dasharray="4,4" opacity="0.6" stroke-linecap="round" />
    <line x1="27.7174" y1="148.9031" x2="67.6304" y2="149.0301" stroke="#E2E8F0" stroke-width="18" stroke-linecap="round" />
    <line x1="27.7174" y1="148.9031" x2="67.6304" y2="149.0301" stroke="#FFFFFF" stroke-width="10" stroke-linecap="round" />
    <line x1="27.7174" y1="148.9031" x2="67.6304" y2="149.0301" stroke="#94A3B8" stroke-width="1" stroke-dasharray="4,4" opacity="0.6" stroke-linecap="round" />
    <line x1="219.0652" y1="149.0239" x2="298.5" y2="149.0239" stroke="#E2E8F0" stroke-width="18" stroke-linecap="round" />
    <line x1="219.0652" y1="149.0239" x2="298.5" y2="149.0239" stroke="#FFFFFF" stroke-width="10" stroke-linecap="round" />
    <line x1="219.0652" y1="149.0239" x2="298.5" y2="149.0239" stroke="#94A3B8" stroke-width="1" stroke-dasharray="4,4" opacity="0.6" stroke-linecap="round" />
    <line x1="345.9782" y1="149.2239" x2="349.7608" y2="149.2847" stroke="#E2E8F0" stroke-width="18" stroke-linecap="round" />
    <line x1="345.9782" y1="149.2239" x2="349.7608" y2="149.2847" stroke="#FFFFFF" stroke-width="10" stroke-linecap="round" />
    <line x1="345.9782" y1="149.2239" x2="349.7608" y2="149.2847" stroke="#94A3B8" stroke-width="1" stroke-dasharray="4,4" opacity="0.6" stroke-linecap="round" />
    <line x1="629.6739" y1="149.0239" x2="659.9347" y2="149.0239" stroke="#E2E8F0" stroke-width="18" stroke-linecap="round" />
    <line x1="629.6739" y1="149.0239" x2="659.9347" y2="149.0239" stroke="#FFFFFF" stroke-width="10" stroke-linecap="round" />
    <line x1="629.6739" y1="149.0239" x2="659.9347" y2="149.0239" stroke="#94A3B8" stroke-width="1" stroke-dasharray="4,4" opacity="0.6" stroke-linecap="round" />
    <line x1="706.9239" y1="149.0239" x2="707.2826" y2="136.1108" stroke="#E2E8F0" stroke-width="18" stroke-linecap="round" />
    <line x1="706.9239" y1="149.0239" x2="707.2826" y2="136.1108" stroke="#FFFFFF" stroke-width="10" stroke-linecap="round" />
    <line x1="706.9239" y1="149.0239" x2="707.2826" y2="136.1108" stroke="#94A3B8" stroke-width="1" stroke-dasharray="4,4" opacity="0.6" stroke-linecap="round" />
    <line x1="298.5" y1="149.0239" x2="298.5652" y2="135.7195" stroke="#E2E8F0" stroke-width="18" stroke-linecap="round" />
    <line x1="298.5" y1="149.0239" x2="298.5652" y2="135.7195" stroke="#FFFFFF" stroke-width="10" stroke-linecap="round" />
    <line x1="298.5" y1="149.0239" x2="298.5652" y2="135.7195" stroke="#94A3B8" stroke-width="1" stroke-dasharray="4,4" opacity="0.6" stroke-linecap="round" />
    <line x1="386.6739" y1="149.2239" x2="386.6739" y2="188.8181" stroke="#E2E8F0" stroke-width="18" stroke-linecap="round" />
    <line x1="386.6739" y1="149.2239" x2="386.6739" y2="188.8181" stroke="#FFFFFF" stroke-width="10" stroke-linecap="round" />
    <line x1="386.6739" y1="149.2239" x2="386.6739" y2="188.8181" stroke="#94A3B8" stroke-width="1" stroke-dasharray="4,4" opacity="0.6" stroke-linecap="round" />
    <line x1="711.5543" y1="232.6326" x2="702.3056" y2="232.5918" stroke="#E2E8F0" stroke-width="18" stroke-linecap="round" />
    <line x1="711.5543" y1="232.6326" x2="702.3056" y2="232.5918" stroke="#FFFFFF" stroke-width="10" stroke-linecap="round" />
    <line x1="711.5543" y1="232.6326" x2="702.3056" y2="232.5918" stroke="#94A3B8" stroke-width="1" stroke-dasharray="4,4" opacity="0.6" stroke-linecap="round" />
    <line x1="334.3695" y1="149.1543" x2="345.9782" y2="149.2239" stroke="#E2E8F0" stroke-width="18" stroke-linecap="round" />
    <line x1="334.3695" y1="149.1543" x2="345.9782" y2="149.2239" stroke="#FFFFFF" stroke-width="10" stroke-linecap="round" />
    <line x1="334.3695" y1="149.1543" x2="345.9782" y2="149.2239" stroke="#94A3B8" stroke-width="1" stroke-dasharray="4,4" opacity="0.6" stroke-linecap="round" />
    <line x1="677.2826" y1="162.0673" x2="677.3478" y2="149.0239" stroke="#E2E8F0" stroke-width="18" stroke-linecap="round" />
    <line x1="677.2826" y1="162.0673" x2="677.3478" y2="149.0239" stroke="#FFFFFF" stroke-width="10" stroke-linecap="round" />
    <line x1="677.2826" y1="162.0673" x2="677.3478" y2="149.0239" stroke="#94A3B8" stroke-width="1" stroke-dasharray="4,4" opacity="0.6" stroke-linecap="round" />
    <line x1="67.6304" y1="149.0301" x2="219.0652" y2="149.0239" stroke="#E2E8F0" stroke-width="18" stroke-linecap="round" />
    <line x1="67.6304" y1="149.0301" x2="219.0652" y2="149.0239" stroke="#FFFFFF" stroke-width="10" stroke-linecap="round" />
    <line x1="67.6304" y1="149.0301" x2="219.0652" y2="149.0239" stroke="#94A3B8" stroke-width="1" stroke-dasharray="4,4" opacity="0.6" stroke-linecap="round" />
    <line x1="453.0326" y1="149.0239" x2="511.3695" y2="148.9348" stroke="#E2E8F0" stroke-width="18" stroke-linecap="round" />
    <line x1="453.0326" y1="149.0239" x2="511.3695" y2="148.9348" stroke="#FFFFFF" stroke-width="10" stroke-linecap="round" />
    <line x1="453.0326" y1="149.0239" x2="511.3695" y2="148.9348" stroke="#94A3B8" stroke-width="1" stroke-dasharray="4,4" opacity="0.6" stroke-linecap="round" />
    <line x1="607.8913" y1="149.0239" x2="629.6739" y2="149.0239" stroke="#E2E8F0" stroke-width="18" stroke-linecap="round" />
    <line x1="607.8913" y1="149.0239" x2="629.6739" y2="149.0239" stroke="#FFFFFF" stroke-width="10" stroke-linecap="round" />
    <line x1="607.8913" y1="149.0239" x2="629.6739" y2="149.0239" stroke="#94A3B8" stroke-width="1" stroke-dasharray="4,4" opacity="0.6" stroke-linecap="round" />
    <line x1="334.4199" y1="161.676" x2="334.3695" y2="149.1543" stroke="#E2E8F0" stroke-width="18" stroke-linecap="round" />
    <line x1="334.4199" y1="161.676" x2="334.3695" y2="149.1543" stroke="#FFFFFF" stroke-width="10" stroke-linecap="round" />
    <line x1="334.4199" y1="161.676" x2="334.3695" y2="149.1543" stroke="#94A3B8" stroke-width="1" stroke-dasharray="4,4" opacity="0.6" stroke-linecap="round" />
    <line x1="357.2608" y1="149.0239" x2="373.2174" y2="148.8883" stroke="#E2E8F0" stroke-width="18" stroke-linecap="round" />
    <line x1="357.2608" y1="149.0239" x2="373.2174" y2="148.8883" stroke="#FFFFFF" stroke-width="10" stroke-linecap="round" />
    <line x1="357.2608" y1="149.0239" x2="373.2174" y2="148.8883" stroke="#94A3B8" stroke-width="1" stroke-dasharray="4,4" opacity="0.6" stroke-linecap="round" />
    <line x1="563.0217" y1="149.1186" x2="607.8913" y2="149.0239" stroke="#E2E8F0" stroke-width="18" stroke-linecap="round" />
    <line x1="563.0217" y1="149.1186" x2="607.8913" y2="149.0239" stroke="#FFFFFF" stroke-width="10" stroke-linecap="round" />
    <line x1="563.0217" y1="149.1186" x2="607.8913" y2="149.0239" stroke="#94A3B8" stroke-width="1" stroke-dasharray="4,4" opacity="0.6" stroke-linecap="round" />
    <line x1="706.9239" y1="149.0239" x2="711.5502" y2="149.0239" stroke="#E2E8F0" stroke-width="18" stroke-linecap="round" />
    <line x1="706.9239" y1="149.0239" x2="711.5502" y2="149.0239" stroke="#FFFFFF" stroke-width="10" stroke-linecap="round" />
    <line x1="706.9239" y1="149.0239" x2="711.5502" y2="149.0239" stroke="#94A3B8" stroke-width="1" stroke-dasharray="4,4" opacity="0.6" stroke-linecap="round" />
    <line x1="219.0652" y1="149.0239" x2="219.2608" y2="135.85" stroke="#E2E8F0" stroke-width="18" stroke-linecap="round" />
    <line x1="219.0652" y1="149.0239" x2="219.2608" y2="135.85" stroke="#FFFFFF" stroke-width="10" stroke-linecap="round" />
    <line x1="219.0652" y1="149.0239" x2="219.2608" y2="135.85" stroke="#94A3B8" stroke-width="1" stroke-dasharray="4,4" opacity="0.6" stroke-linecap="round" />
  </g>

  <!-- Rooms, Classrooms and Centers -->
  <g>
    <g id="node_room_J203" transform="translate(298.5652, 135.7195)" filter="url(#badgeShadow_Main_SF)" class="map-node-group cursor-pointer">
      <rect x="-23" y="-15" width="46" height="30" rx="7" fill="#FFFFFF" stroke="#3B82F6" stroke-width="1.8" />
      <rect x="-21" y="-13" width="42" height="10" rx="4" fill="#EFF6FF" />
      <circle cx="0" cy="0" r="3" fill="#3B82F6" />
      <text x="0" y="10" fill="#0F172A" font-family="system-ui, -apple-system, sans-serif" font-size="8" font-weight="700" text-anchor="middle">J203 (Dr. N</text>
    </g>
    <g id="node_cabin_Prof_Pooja_Sahoo" transform="translate(660.326, 162.0673)" filter="url(#badgeShadow_Main_SF)" class="map-node-group cursor-pointer">
      <rect x="-23" y="-15" width="46" height="30" rx="7" fill="#FFFFFF" stroke="#3B82F6" stroke-width="1.8" />
      <rect x="-21" y="-13" width="42" height="10" rx="4" fill="#EFF6FF" />
      <circle cx="0" cy="0" r="3" fill="#3B82F6" />
      <text x="0" y="10" fill="#0F172A" font-family="system-ui, -apple-system, sans-serif" font-size="8" font-weight="700" text-anchor="middle">Prof. Pooja</text>
    </g>
    <g id="node_cabin_Dr_Rahul_Dubey_ET" transform="translate(345.7826, 124.1108)" filter="url(#badgeShadow_Main_SF)" class="map-node-group cursor-pointer">
      <rect x="-23" y="-15" width="46" height="30" rx="7" fill="#FFFFFF" stroke="#3B82F6" stroke-width="1.8" />
      <rect x="-21" y="-13" width="42" height="10" rx="4" fill="#EFF6FF" />
      <circle cx="0" cy="0" r="3" fill="#3B82F6" />
      <text x="0" y="10" fill="#0F172A" font-family="system-ui, -apple-system, sans-serif" font-size="8" font-weight="700" text-anchor="middle">Dr. Rahul D</text>
    </g>
    <g id="node_cabin_Project_Lab_J204" transform="translate(376.1087, 230.4586)" filter="url(#badgeShadow_Main_SF)" class="map-node-group cursor-pointer">
      <rect x="-23" y="-15" width="46" height="30" rx="7" fill="#FAF5FF" stroke="#A855F7" stroke-width="1.8" />
      <rect x="-21" y="-13" width="42" height="10" rx="4" fill="#F3E8FF" />
      <circle cx="0" cy="0" r="3" fill="#9333EA" />
      <text x="0" y="10" fill="#581C87" font-family="system-ui, -apple-system, sans-serif" font-size="8" font-weight="700" text-anchor="middle">Project Lab</text>
    </g>
    <g id="node_cabin_Dr_Deepak_Batham" transform="translate(334.4199, 161.676)" filter="url(#badgeShadow_Main_SF)" class="map-node-group cursor-pointer">
      <rect x="-23" y="-15" width="46" height="30" rx="7" fill="#FFFFFF" stroke="#3B82F6" stroke-width="1.8" />
      <rect x="-21" y="-13" width="42" height="10" rx="4" fill="#EFF6FF" />
      <circle cx="0" cy="0" r="3" fill="#3B82F6" />
      <text x="0" y="10" fill="#0F172A" font-family="system-ui, -apple-system, sans-serif" font-size="8" font-weight="700" text-anchor="middle">Dr. Deepak </text>
    </g>
    <g id="node_room_J202" transform="translate(219.2608, 135.85)" filter="url(#badgeShadow_Main_SF)" class="map-node-group cursor-pointer">
      <rect x="-23" y="-15" width="46" height="30" rx="7" fill="#FAF5FF" stroke="#A855F7" stroke-width="1.8" />
      <rect x="-21" y="-13" width="42" height="10" rx="4" fill="#F3E8FF" />
      <circle cx="0" cy="0" r="3" fill="#9333EA" />
      <text x="0" y="10" fill="#581C87" font-family="system-ui, -apple-system, sans-serif" font-size="8" font-weight="700" text-anchor="middle">Communicati</text>
    </g>
    <g id="node_cabin_Prof_DK_Parsediya" transform="translate(677.2826, 162.0673)" filter="url(#badgeShadow_Main_SF)" class="map-node-group cursor-pointer">
      <rect x="-23" y="-15" width="46" height="30" rx="7" fill="#FFFFFF" stroke="#3B82F6" stroke-width="1.8" />
      <rect x="-21" y="-13" width="42" height="10" rx="4" fill="#EFF6FF" />
      <circle cx="0" cy="0" r="3" fill="#3B82F6" />
      <text x="0" y="10" fill="#0F172A" font-family="system-ui, -apple-system, sans-serif" font-size="8" font-weight="700" text-anchor="middle">Prof. D. K.</text>
    </g>
    <g id="node_cabin_Dr_Nidhi_Saxena" transform="translate(298.5652, 135.7195)" filter="url(#badgeShadow_Main_SF)" class="map-node-group cursor-pointer">
      <rect x="-23" y="-15" width="46" height="30" rx="7" fill="#FFFFFF" stroke="#3B82F6" stroke-width="1.8" />
      <rect x="-21" y="-13" width="42" height="10" rx="4" fill="#EFF6FF" />
      <circle cx="0" cy="0" r="3" fill="#3B82F6" />
      <text x="0" y="10" fill="#0F172A" font-family="system-ui, -apple-system, sans-serif" font-size="8" font-weight="700" text-anchor="middle">Dr. Nidhi S</text>
    </g>
    <g id="node_cabin_Dr_Varun_Sharma" transform="translate(349.8548, 161.676)" filter="url(#badgeShadow_Main_SF)" class="map-node-group cursor-pointer">
      <rect x="-23" y="-15" width="46" height="30" rx="7" fill="#FFFFFF" stroke="#3B82F6" stroke-width="1.8" />
      <rect x="-21" y="-13" width="42" height="10" rx="4" fill="#EFF6FF" />
      <circle cx="0" cy="0" r="3" fill="#3B82F6" />
      <text x="0" y="10" fill="#0F172A" font-family="system-ui, -apple-system, sans-serif" font-size="8" font-weight="700" text-anchor="middle">Dr. Varun S</text>
    </g>
    <g id="node_room_FemaleWashroom_SF" transform="translate(563.2218, 136.1108)" filter="url(#badgeShadow_Main_SF)" class="map-node-group cursor-pointer">
      <rect x="-23" y="-15" width="46" height="30" rx="7" fill="#FFFFFF" stroke="#3B82F6" stroke-width="1.8" />
      <rect x="-21" y="-13" width="42" height="10" rx="4" fill="#EFF6FF" />
      <circle cx="0" cy="0" r="3" fill="#3B82F6" />
      <text x="0" y="10" fill="#0F172A" font-family="system-ui, -apple-system, sans-serif" font-size="8" font-weight="700" text-anchor="middle">Female Wash</text>
    </g>
    <g id="node_cabin_Dr_Yogesh_Himanshu" transform="translate(608.413, 136.1108)" filter="url(#badgeShadow_Main_SF)" class="map-node-group cursor-pointer">
      <rect x="-23" y="-15" width="46" height="30" rx="7" fill="#FFFFFF" stroke="#3B82F6" stroke-width="1.8" />
      <rect x="-21" y="-13" width="42" height="10" rx="4" fill="#EFF6FF" />
      <circle cx="0" cy="0" r="3" fill="#3B82F6" />
      <text x="0" y="10" fill="#0F172A" font-family="system-ui, -apple-system, sans-serif" font-size="8" font-weight="700" text-anchor="middle">Dr. Yogesh </text>
    </g>
    <g id="node_cabin_Dr_Shubhi_Kansal" transform="translate(373.2174, 98.2847)" filter="url(#badgeShadow_Main_SF)" class="map-node-group cursor-pointer">
      <rect x="-23" y="-15" width="46" height="30" rx="7" fill="#FFFFFF" stroke="#3B82F6" stroke-width="1.8" />
      <rect x="-21" y="-13" width="42" height="10" rx="4" fill="#EFF6FF" />
      <circle cx="0" cy="0" r="3" fill="#3B82F6" />
      <text x="0" y="10" fill="#0F172A" font-family="system-ui, -apple-system, sans-serif" font-size="8" font-weight="700" text-anchor="middle">Dr. Shubhi </text>
    </g>
    <g id="node_room_J209" transform="translate(711.5502, 345.5681)" filter="url(#badgeShadow_Main_SF)" class="map-node-group cursor-pointer">
      <rect x="-23" y="-15" width="46" height="30" rx="7" fill="#FFFFFF" stroke="#3B82F6" stroke-width="1.8" />
      <rect x="-21" y="-13" width="42" height="10" rx="4" fill="#EFF6FF" />
      <circle cx="0" cy="0" r="3" fill="#3B82F6" />
      <text x="0" y="10" fill="#0F172A" font-family="system-ui, -apple-system, sans-serif" font-size="8" font-weight="700" text-anchor="middle">J209</text>
    </g>
    <g id="node_cabin_Computer_Lab_J208" transform="translate(702.3056, 232.5918)" filter="url(#badgeShadow_Main_SF)" class="map-node-group cursor-pointer">
      <rect x="-23" y="-15" width="46" height="30" rx="7" fill="#FAF5FF" stroke="#A855F7" stroke-width="1.8" />
      <rect x="-21" y="-13" width="42" height="10" rx="4" fill="#F3E8FF" />
      <circle cx="0" cy="0" r="3" fill="#9333EA" />
      <text x="0" y="10" fill="#581C87" font-family="system-ui, -apple-system, sans-serif" font-size="8" font-weight="700" text-anchor="middle">Computer La</text>
    </g>
    <g id="node_room_J204" transform="translate(376.1087, 230.4586)" filter="url(#badgeShadow_Main_SF)" class="map-node-group cursor-pointer">
      <rect x="-23" y="-15" width="46" height="30" rx="7" fill="#FAF5FF" stroke="#A855F7" stroke-width="1.8" />
      <rect x="-21" y="-13" width="42" height="10" rx="4" fill="#F3E8FF" />
      <circle cx="0" cy="0" r="3" fill="#9333EA" />
      <text x="0" y="10" fill="#581C87" font-family="system-ui, -apple-system, sans-serif" font-size="8" font-weight="700" text-anchor="middle">Project Lab</text>
    </g>
    <g id="node_room_J206" transform="translate(511.6304, 135.4586)" filter="url(#badgeShadow_Main_SF)" class="map-node-group cursor-pointer">
      <rect x="-23" y="-15" width="46" height="30" rx="7" fill="#FFFFFF" stroke="#3B82F6" stroke-width="1.8" />
      <rect x="-21" y="-13" width="42" height="10" rx="4" fill="#EFF6FF" />
      <circle cx="0" cy="0" r="3" fill="#3B82F6" />
      <text x="0" y="10" fill="#0F172A" font-family="system-ui, -apple-system, sans-serif" font-size="8" font-weight="700" text-anchor="middle">J206</text>
    </g>
    <g id="node_cabin_Dr_Karuna_Markam" transform="translate(357.2608, 99.1652)" filter="url(#badgeShadow_Main_SF)" class="map-node-group cursor-pointer">
      <rect x="-23" y="-15" width="46" height="30" rx="7" fill="#FFFFFF" stroke="#3B82F6" stroke-width="1.8" />
      <rect x="-21" y="-13" width="42" height="10" rx="4" fill="#EFF6FF" />
      <circle cx="0" cy="0" r="3" fill="#3B82F6" />
      <text x="0" y="10" fill="#0F172A" font-family="system-ui, -apple-system, sans-serif" font-size="8" font-weight="700" text-anchor="middle">Dr. Karuna </text>
    </g>
    <g id="node_room_J201" transform="translate(67.4347, 136.1108)" filter="url(#badgeShadow_Main_SF)" class="map-node-group cursor-pointer">
      <rect x="-23" y="-15" width="46" height="30" rx="7" fill="#FFFFFF" stroke="#3B82F6" stroke-width="1.8" />
      <rect x="-21" y="-13" width="42" height="10" rx="4" fill="#EFF6FF" />
      <circle cx="0" cy="0" r="3" fill="#3B82F6" />
      <text x="0" y="10" fill="#0F172A" font-family="system-ui, -apple-system, sans-serif" font-size="8" font-weight="700" text-anchor="middle">Exam Room J</text>
    </g>
    <g id="node_room_J205" transform="translate(386.6739, 346.2413)" filter="url(#badgeShadow_Main_SF)" class="map-node-group cursor-pointer">
      <rect x="-23" y="-15" width="46" height="30" rx="7" fill="#FFFFFF" stroke="#3B82F6" stroke-width="1.8" />
      <rect x="-21" y="-13" width="42" height="10" rx="4" fill="#EFF6FF" />
      <circle cx="0" cy="0" r="3" fill="#3B82F6" />
      <text x="0" y="10" fill="#0F172A" font-family="system-ui, -apple-system, sans-serif" font-size="8" font-weight="700" text-anchor="middle">J205</text>
    </g>
    <g id="node_cabin_Dr_Vandana_HOD_ET" transform="translate(629.6739, 136.1108)" filter="url(#badgeShadow_Main_SF)" class="map-node-group cursor-pointer">
      <rect x="-23" y="-15" width="46" height="30" rx="7" fill="#FFFFFF" stroke="#3B82F6" stroke-width="1.8" />
      <rect x="-21" y="-13" width="42" height="10" rx="4" fill="#EFF6FF" />
      <circle cx="0" cy="0" r="3" fill="#3B82F6" />
      <text x="0" y="10" fill="#0F172A" font-family="system-ui, -apple-system, sans-serif" font-size="8" font-weight="700" text-anchor="middle">Dr. Vandana</text>
    </g>
    <g id="node_cabin_Communication_Lab_J202" transform="translate(219.2608, 135.85)" filter="url(#badgeShadow_Main_SF)" class="map-node-group cursor-pointer">
      <rect x="-23" y="-15" width="46" height="30" rx="7" fill="#FAF5FF" stroke="#A855F7" stroke-width="1.8" />
      <rect x="-21" y="-13" width="42" height="10" rx="4" fill="#F3E8FF" />
      <circle cx="0" cy="0" r="3" fill="#9333EA" />
      <text x="0" y="10" fill="#581C87" font-family="system-ui, -apple-system, sans-serif" font-size="8" font-weight="700" text-anchor="middle">Communicati</text>
    </g>
    <g id="node_room_J208" transform="translate(702.3056, 232.5918)" filter="url(#badgeShadow_Main_SF)" class="map-node-group cursor-pointer">
      <rect x="-23" y="-15" width="46" height="30" rx="7" fill="#FAF5FF" stroke="#A855F7" stroke-width="1.8" />
      <rect x="-21" y="-13" width="42" height="10" rx="4" fill="#F3E8FF" />
      <circle cx="0" cy="0" r="3" fill="#9333EA" />
      <text x="0" y="10" fill="#581C87" font-family="system-ui, -apple-system, sans-serif" font-size="8" font-weight="700" text-anchor="middle">Computer La</text>
    </g>
    <g id="node_cabin_Exam_Room_J201" transform="translate(67.4347, 136.1108)" filter="url(#badgeShadow_Main_SF)" class="map-node-group cursor-pointer">
      <rect x="-23" y="-15" width="46" height="30" rx="7" fill="#FFFFFF" stroke="#3B82F6" stroke-width="1.8" />
      <rect x="-21" y="-13" width="42" height="10" rx="4" fill="#EFF6FF" />
      <circle cx="0" cy="0" r="3" fill="#3B82F6" />
      <text x="0" y="10" fill="#0F172A" font-family="system-ui, -apple-system, sans-serif" font-size="8" font-weight="700" text-anchor="middle">Exam Room –</text>
    </g>
  </g>

  <!-- Vertical Stairs & Lifts -->
  <g>
    <g id="node_Stair04_SF" transform="translate(28.0434, 130.5021)" filter="url(#badgeShadow_Main_SF)" class="map-node-group cursor-pointer">
      <rect x="-16" y="-16" width="32" height="32" rx="8" fill="#F5F3FF" stroke="#7C3AED" stroke-width="2" />
      <path d="M-9 7 L-3 1 L3 1 L3 -5 L9 -5" fill="none" stroke="#6D28D9" stroke-width="2.5" stroke-linecap="round" stroke-linejoin="round" />
      <text x="0" y="27" fill="#4C1D95" font-family="system-ui, -apple-system, sans-serif" font-size="8.5" font-weight="800" text-anchor="middle">Stair 04</text>
    </g>
    <g id="node_Stair05_SF" transform="translate(707.2826, 136.1108)" filter="url(#badgeShadow_Main_SF)" class="map-node-group cursor-pointer">
      <rect x="-16" y="-16" width="32" height="32" rx="8" fill="#F5F3FF" stroke="#7C3AED" stroke-width="2" />
      <path d="M-9 7 L-3 1 L3 1 L3 -5 L9 -5" fill="none" stroke="#6D28D9" stroke-width="2.5" stroke-linecap="round" stroke-linejoin="round" />
      <text x="0" y="27" fill="#4C1D95" font-family="system-ui, -apple-system, sans-serif" font-size="8.5" font-weight="800" text-anchor="middle">Stair 05</text>
    </g>
  </g>

  <!-- Entry Points and Campus Gates -->
  <g>
  </g>

  <!-- Clean Map Badge -->
  <g transform="translate(24, 444.3806)">
    <rect width="210" height="26" rx="6" fill="#FFFFFF" stroke="#E2E8F0" stroke-width="1.2" filter="url(#badgeShadow_Main_SF)"/>
    <circle cx="14" cy="13" r="4" fill="#10B981"/>
    <text x="26" y="17" fill="#334155" font-family="system-ui, -apple-system, sans-serif" font-size="10.5" font-weight="700">MITS GWALIOR • LIGHT THEME</text>
  </g>
</svg>